<?xml version="1.0" encoding="UTF-8"?>
<svg xmlns="http://www.w3.org/2000/svg" viewBox="0 0 800 450">
  <defs>
    <style>
      .cls-1 {
        fill: #f4c7c3;
      }

      .cls-2 {
        fill: #f28585;
      }

      .cls-3 {
        fill: #fff;
      }

      .cls-4 {
        fill: #f3908e;
      }

      .cls-5 {
        fill: #f0b3ae;
      }

      .cls-6 {
        fill: #f17679;
      }

      .cls-7 {
        fill: #7e7e9e;
      }

      .cls-8 {
        fill: #9ecfd7;
      }

      .cls-9 {
        fill: #86c5cf;
      }

      .cls-10 {
        fill: #90c4d6;
      }

      .cls-11 {
        fill: #add5dc;
      }

      .cls-12 {
        fill: #0f303f;
      }

      .cls-13 {
        fill: #484a75;
      }

      .cls-14, .cls-15, .cls-16 {
        fill: #59b7c3;
      }

      .cls-17 {
        fill: #e7f1f3;
        mix-blend-mode: multiply;
      }

      .cls-18 {
        fill: #f37677;
        font-family: MyriadPro-Bold, 'Myriad Pro';
        font-size: 10.07px;
      }

      .cls-15 {
        opacity: .15;
      }

      .cls-16 {
        opacity: .19;
      }

      .cls-19 {
        isolation: isolate;
      }
    </style>
  </defs>
  <g class="cls-19">
    <g id="Layer_1" data-name="Layer 1">
      <g>
        <path class="cls-15" d="M-256.53,210.1c-6.48-26.63-12.53-57.16,3.79-79.55,14.17-19.44,40.52-25.71,64.69-28.28,51.34-5.45,83.41-18.22,104.13-68.21,10.09-24.35,14.94-50.39,22.3-75.64C-43.33-104.44-8.6-163.41,41.24-207.02c48.61-42.53,111.93-69.72,176.77-71.59,1.64-.05,3.28-.08,4.92-.09,52.14-.47,103.95,16.03,146.29,45.4,21.04,14.59,36.8,34.43,57.43,49.18,22.55,16.13,46.48,30.68,72.37,41.14,67.74,27.39,144.42,25.43,216.98,38.16,72.56,12.73,149.56,48.28,171.09,115.5,24.46,76.37-32.07,153.88-49.92,232.52-14.97,65.95-1.27,136.99,37.18,192.8,19.59,28.43,45.16,52.88,63.26,82.22,24.72,40.44,22.83,89.82-8.82,126.56-15.42,17.89-35.23,29.6-57.15,38.19-29.23,11.46-52.57,4.59-83.13-.49-55.64-9.25-111.82-18.53-168.27-15.63-48.32,2.48-97.63,14.51-138.28,41.32-20.44,13.48-30.38,22.31-56.71,23.3-23.81,.9-47.85-4.5-68.68-15.71-47.95-25.81-74.83-83.75-113.28-120.84-42.44-40.94-104.83-44.38-159.86-27.63-50.98,15.52-93.46,51.6-144.2,67.88-72.3,23.19-157.37,.12-206.7-56.07-49.32-56.19-59.99-142.16-25.91-208.9,28.45-55.72,52.46-95.82,36.82-160.09Z"/>
        <ellipse class="cls-16" cx="117.81" cy="115.24" rx="173.65" ry="158.2"/>
        <ellipse class="cls-16" cx="693.7" cy="349.11" rx="173.65" ry="158.2"/>
      </g>
      <g>
        <polygon class="cls-8" points="208.55 154.81 203.89 150.61 208.55 111 231.38 73.7 295.06 73.7 295.06 97.28 295.06 128.38 295.06 154.81 208.55 154.81"/>
        <polygon class="cls-9" points="208.55 154.81 203.89 150.61 286.11 146.66 295.06 154.81 208.55 154.81"/>
        <polygon class="cls-12" points="295.06 93.28 295.06 73.7 290.39 69.5 290.39 89.08 295.06 93.28"/>
        <polygon class="cls-11" points="204.3 150.61 204.3 124.19 204.3 92.33 227.13 69.51 290.81 69.51 290.81 93.09 290.81 124.19 290.81 150.61 204.3 150.61"/>
        <polygon class="cls-3" points="290.39 69.5 290.39 95.93 290.39 130.81 270.6 150.61 203.89 150.61 203.89 127.03 203.89 95.93 203.89 69.5 290.39 69.5"/>
        <rect class="cls-13" x="203.89" y="69.5" width="86.5" height="19.58"/>
        <g>
          <path class="cls-12" d="M221.3,81.24c0,2.19,1.77,3.96,3.97,3.96s3.96-1.77,3.96-3.96-1.77-3.96-3.96-3.96-3.97,1.77-3.97,3.96Z"/>
          <path class="cls-3" d="M224.8,79.29h-1.28c-1.28,0-2.33-1.05-2.33-2.33v-7.93c0-1.29,1.05-2.33,2.33-2.33h1.28c1.2,0,2.16,.93,2.28,2.1h3.76c-.13-3.23-2.78-5.83-6.04-5.83h-4.2c-3.34,0-6.06,2.72-6.06,6.06v7.93c0,3.34,2.72,6.06,6.06,6.06h4.2c1.03,0,1.86-.83,1.86-1.87s-.83-1.86-1.86-1.86Z"/>
          <path class="cls-10" d="M224.96,62.99c-3.27,.09-5.91,2.75-5.91,6.05v7.93c0,3.27,2.61,5.93,5.85,6.04,.98-.06,1.76-.85,1.76-1.84s-.83-1.86-1.86-1.86h-1.28c-1.28,0-2.33-1.05-2.33-2.33v-7.93c0-1.29,1.05-2.33,2.33-2.33h1.28c1.2,0,2.16,.93,2.28,2.1h3.76c-.13-3.18-2.7-5.73-5.88-5.81Z"/>
        </g>
        <g>
          <path class="cls-12" d="M265.6,81.24c0,2.19,1.77,3.96,3.96,3.96s3.96-1.77,3.96-3.96-1.77-3.96-3.96-3.96-3.96,1.77-3.96,3.96Z"/>
          <path class="cls-3" d="M269.1,79.29h-1.29c-1.28,0-2.33-1.05-2.33-2.33v-7.93c0-1.29,1.05-2.33,2.33-2.33h1.29c1.2,0,2.16,.93,2.28,2.1h3.75c-.12-3.23-2.77-5.83-6.03-5.83h-4.2c-3.34,0-6.06,2.72-6.06,6.06v7.93c0,3.34,2.72,6.06,6.06,6.06h4.2c1.03,0,1.86-.83,1.86-1.87s-.83-1.86-1.86-1.86Z"/>
          <path class="cls-10" d="M269.25,62.99c-3.27,.09-5.91,2.75-5.91,6.05v7.93c0,3.27,2.61,5.93,5.85,6.04,.98-.06,1.76-.85,1.76-1.84s-.83-1.86-1.86-1.86h-1.29c-1.28,0-2.33-1.05-2.33-2.33v-7.93c0-1.29,1.05-2.33,2.33-2.33h1.29c1.2,0,2.16,.93,2.28,2.1h3.75c-.12-3.18-2.69-5.73-5.88-5.81Z"/>
        </g>
        <g>
          <g>
            <line class="cls-7" x1="210.02" y1="95.33" x2="287.14" y2="94.93"/>
            <path class="cls-7" d="M210.02,95.23c12.61-1.41,25.84-1.77,38.55-1.9,12.72,0,25.94,.23,38.57,1.5,0,0,0,.2,0,.2-19.09,0-58.43,.78-77.12,.2h0Z"/>
          </g>
          <g>
            <line class="cls-7" x1="210.02" y1="123.24" x2="287.14" y2="122.84"/>
            <path class="cls-7" d="M210.02,123.14c12.61-1.41,25.84-1.77,38.55-1.9,12.72,0,25.94,.23,38.57,1.5,0,0,0,.2,0,.2-19.09,0-58.43,.78-77.12,.2h0Z"/>
          </g>
          <g>
            <line class="cls-7" x1="210.02" y1="113.94" x2="287.14" y2="113.54"/>
            <path class="cls-7" d="M210.02,113.84c12.61-1.41,25.84-1.77,38.55-1.9,12.72,0,25.94,.23,38.57,1.5,0,0,0,.2,0,.2-19.09,0-58.43,.78-77.12,.2h0Z"/>
          </g>
          <g>
            <line class="cls-7" x1="210.02" y1="132.54" x2="287.14" y2="132.15"/>
            <path class="cls-7" d="M210.02,132.44c12.61-1.41,25.84-1.77,38.55-1.9,12.72,0,25.94,.23,38.57,1.5,0,0,0,.2,0,.2-19.09,0-58.43,.78-77.12,.2h0Z"/>
          </g>
          <g>
            <line class="cls-7" x1="210.02" y1="141.85" x2="277.48" y2="141.33"/>
            <path class="cls-7" d="M210.02,141.75c11.01-1.42,22.59-1.81,33.71-1.96,11.13-.01,22.7,.19,33.74,1.44,0,0,0,.2,0,.2-16.68,.02-51.18,.87-67.45,.31h0Z"/>
          </g>
          <path class="cls-7" d="M221.26,141.91c-1.34-7.63-1.64-15.71-1.7-23.46,.06-7.85,.37-15.71,1.7-23.46,0,0,.2,0,.2,0l.1,23.46-.1,23.46s-.2,0-.2,0h0Z"/>
          <g>
            <line class="cls-7" x1="210.02" y1="104.63" x2="287.14" y2="104.24"/>
            <path class="cls-7" d="M210.02,104.53c12.61-1.41,25.84-1.77,38.55-1.9,12.72,0,25.94,.23,38.57,1.5,0,0,0,.2,0,.2-19.09,0-58.43,.78-77.12,.2h0Z"/>
          </g>
          <path class="cls-7" d="M232.15,141.91c-1.34-7.63-1.64-15.71-1.7-23.46,.06-7.85,.37-15.71,1.7-23.46,0,0,.2,0,.2,0l.1,23.46-.1,23.46h-.2Z"/>
          <path class="cls-7" d="M243.04,141.91c-1.34-7.63-1.64-15.71-1.7-23.46,.06-7.85,.37-15.71,1.7-23.46,0,0,.2,0,.2,0l.1,23.46-.1,23.46s-.2,0-.2,0h0Z"/>
          <path class="cls-7" d="M253.93,141.91c-1.34-7.63-1.64-15.71-1.7-23.46,.06-7.85,.37-15.71,1.7-23.46,0,0,.2,0,.2,0l.1,23.46-.1,23.46h-.2Z"/>
          <path class="cls-7" d="M264.82,141.91c-1.34-7.63-1.64-15.71-1.7-23.46,.06-7.85,.37-15.71,1.7-23.46,0,0,.2,0,.2,0l.1,23.46-.1,23.46h-.2Z"/>
          <path class="cls-7" d="M275.71,141.91c-1.34-7.63-1.64-15.71-1.7-23.46,.06-7.85,.37-15.71,1.7-23.46,0,0,.2,0,.2,0l.1,23.46-.1,23.46s-.2,0-.2,0h0Z"/>
          <path class="cls-7" d="M210.37,141.91c-1.34-7.63-1.64-15.71-1.7-23.46,.06-7.85,.37-15.71,1.7-23.46,0,0,.2,0,.2,0l.1,23.46-.1,23.46s-.2,0-.2,0h0Z"/>
          <g>
            <line class="cls-7" x1="286.37" y1="136.68" x2="286.7" y2="94.99"/>
            <path class="cls-7" d="M286.27,136.68c-1.31-6.82-1.51-13.95-1.53-20.86,.13-7,.45-13.93,1.86-20.83,0,0,.2,0,.2,0l-.07,20.85-.27,20.84s-.2,0-.2,0h0Z"/>
          </g>
        </g>
        <g>
          <polygon class="cls-14" points="271.65 131.24 291.45 131.24 271.65 151.03 271.65 131.24"/>
          <polygon class="cls-17" points="291.45 131.24 271.65 131.24 291.45 111.44 291.45 131.24"/>
        </g>
        <text class="cls-18" transform="translate(223.54 130.92) scale(1.25 1.12)"><tspan x="0" y="0">x</tspan></text>
      </g>
      <path class="cls-13" d="M386.41,37.44c46.81-17.39,74.89,.4,91.07,13.69,12.16,9.98,24.92,34.41,10.47,52.17,7.11-6.94,44.08-20.29,70.13,6.27,10.68,10.89,4.67,27.51-6.27,33.94,10.27,1.96,20.67,3.96,30.09,8.48,9.42,4.53,17.92,11.94,21.45,21.78,3.54,9.84,1.05,22.16-7.47,28.23,17.01,1.78,32.53,15.4,35.05,32.31,2.51,16.92-9.5,35.16-26.33,38.18-16.83,3.02-35.05-11.28-34.82-28.39-15.16,5.22-31.04,10.51-46.91,8.26-15.88-2.25-31.56-14.63-31.78-30.67-8.67,4.88-17.44,9.81-27.02,12.48-9.58,2.67-20.21,2.89-29.15-1.47-8.94-4.36-15.68-13.94-14.78-23.85-9.97,2.28-20.06,4.58-30.28,4.28-10.22-.3-20.74-3.5-27.9-10.8-7.16-7.3-10.08-19.18-5.19-28.15-13.21-3.3-30.51-31.28-22.23-66.75,5.35-22.92,13.83-55.87,51.87-70Z"/>
      <path class="cls-5" d="M381.59,159.86c5.36-4.4,9-10.51,10.51-17.28,4.51-20.16-5.74-62.69-8.26-76.94-3.39-19.13,38.55,8.68,38.55,8.68,0,0,5.48,48.71,16.94,80.69,4.95,13.82,25.94,17.54,30.82,23.71,.64,.81,1.35,2.95,1.74,4.85,5.44,26-76.76,76.97-94.12,61.57-10.1-8.97,6.27-36.39-10.36-53.12-5.54-5.57-13.78-9.21,14.18-32.16Z"/>
      <path class="cls-1" d="M415.92,57.24c11.52,4.09,21.08,13.14,24.58,28.2,9.79,42.16-17.32,86.74-52.35,76.93-20-5.6-36.18-44.92-31.39-63.7,7.7-30.17,29.82-51.86,59.16-41.43Z"/>
      <path class="cls-4" d="M308,296.76c-14.19-27.57-2.15-70.51,19.64-104.08,15.49-23.85,38.92-24.33,38.92-24.33,.48,40.76,28.47,66.32,47.24,64.37,17.98-1.87,38.83-30.16,34.42-67.7,0,0,8.39,2.48,18.05,7.28h0c6.91,2.96,14.24,6.11,18.35,9.47,0,0,4.22,3.46,7.34,11.75,8.18,21.69-11.39,116.94-13.56,139.85-2.62,27.79-.77,67.93,21.12,118.61-59.09,0-118.19,0-177.28,0-1.47-.74-24.34,.79-25.78,0,2.82-7.68,20.87-57.47,24.12-96.24,1.45-17.3-.35-28.74-3.11-37.9-3.15-10.46-7.09-16.4-9.5-21.08Z"/>
      <path class="cls-13" d="M381.72,44.53s63.17-26.34,82.58,77.69c8.63,46.24-27.03,17.65-37.07-6.02-31.64-3.63-50-35.29-50-35.29,0,0-29.2,24.39-17.12,56-38.43-72.37,21.61-92.39,21.61-92.39Z"/>
      <path class="cls-1" d="M491.56,313.98c16.27,.1,26.03-14.53,42.3-14.23,13.85,42.68-1.8,65.53-12.42,73.74-47.79,36.93-111.25,24.6-111.25,24.6,0,0-7.69,.51-4.49-13.98,1.92-8.71,96.34-11.36,85.86-70.13Z"/>
      <path class="cls-5" d="M349.7,197.17s-9.81,19.62-12.48,32.95c-2.67,13.32-34.28,69.06-31.45,79.12,16.09,57.13,106.32,79.74,106.32,79.74,0,0,42.16-2.73,38.94,9.36-3,11.23-34.64,24.31-57.65,7.86-7.97-5.69-100-19.51-116.06-96.71-6.52-46.12,72.38-112.31,72.38-112.31Z"/>
      <path class="cls-2" d="M357.26,169.97c-2.65,19.7-6.63,35.47-9.94,46.6-3.84,12.89-8,23.65-16.15,44.73-8.45,21.86-7.65,17.61-9.94,24.85-2.8,8.85-8.53,16.64-10.89,25.62-.08,.32-.24,.89-.76,1.24-5.95,4.02-41.69-29.5-41.69-42.17,12.63-15.03,21.1-28.38,26.62-38.12,8.15-14.37,14.26-24.25,26.09-37.28,5.46-6.01,12.38-12.73,22.37-18.64,5.61-3.32,10.64-5.47,14.29-6.83Z"/>
      <path class="cls-2" d="M462.73,208.3c3.11-11.25,11-28.2,20.04-27.77,5.39,.26,9.5,6.63,11.8,11.18,5.89,9.2,11.76,19.34,17.34,30.44,16.11,32.05,24.93,62.39,29.88,87.61-16.96,23.13-28.22,27.03-35.51,25.97-5.58-.81-16.67,3.09-24.75-3.6-2.97-2.46-4.65-5.37-5.59-7.46-.63-21.51-3.16-38.56-5.25-49.83-5.99-32.33-13.75-45.59-7.96-66.55Z"/>
      <path class="cls-1" d="M332.36,342.45c12.48-9.48,31.95,18.47,35.44,19.97,3.49,1.5,67.89,9.98,95.34,1,27.45-8.99,21.46-30.45,21.46-30.45,0,0,20.97,11.48,44.93,11.98-8.99,32.95-36.44,49.42-92.85,51.91-23.57,1.04-68.89-7.99-84.36-16.47-15.47-8.49-32.45-28.45-19.97-37.94Z"/>
      <path class="cls-6" d="M371.55,167.48c.36,7.54,2.03,21.86,10.56,37.28,8.16,14.75,18.78,23.59,24.85,27.96,10.6-7.61,29.4-23.68,37.94-50.05,1.87-5.78,3-11.31,3.65-16.4,1.63,.46,3.27,.92,4.92,1.4,1.91,.55,3.81,1.11,5.68,1.68-5,15.6-10.9,27.68-15.53,36.04-5.88,10.6-10.66,16.85-14.29,21.12-9.66,11.37-15.4,18.12-22.99,18.02-8.69-.11-15.11-9.15-23.61-21.12-2.45-3.45-7.04-10.39-11.18-20.5-3.08-7.53-6.87-19.14-8.08-34.17,2.69-.41,5.38-.83,8.08-1.24Z"/>
      <path class="cls-6" d="M315.01,299.31c.23,1.09,1.97,10.02-2.88,13.89-2.14,1.71-5.45,2.33-14.51-.33-6.7-1.97-16.68-5.77-27.96-13.67-.92-.84-7.33-6.86-6.83-16.15,.34-6.48,3.84-10.82,5.06-12.21,1.38,3.54,6.22,14.62,18.54,22.15,12.54,7.65,24.83,6.74,28.58,6.32Z"/>
      <path class="cls-6" d="M539.93,304.79c1.14,2.01,4.03,7.72,1.86,13.05-1.3,3.2-3.88,4.91-5.93,6.22-4.72,3-12.37,7.48-23.27,12.42-4.42,2-8.07,1.87-12.43,2.49-11.86,1.68-18.79,2.66-22.37-1.24-.93-1.02-3.15-4.01-1.86-11.18,7.4,.75,21.38,1.15,37.25-4.92,12.82-4.9,21.67-12.03,26.75-16.83Z"/>
    </g>
  </g>
</svg>