<?xml version="1.0" encoding="UTF-8"?>
<svg id="Layer_1" data-name="Layer 1" xmlns="http://www.w3.org/2000/svg" viewBox="0 0 800 450">
  <defs>
    <style>
      .cls-1 {
        fill: #038da3;
      }

      .cls-2 {
        fill: #f4f9f9;
      }

      .cls-3 {
        fill: #fff;
      }

      .cls-4 {
        fill: #ecf4f5;
      }

      .cls-5 {
        fill: #333664;
      }

      .cls-6 {
        fill: #b88272;
      }

      .cls-7 {
        fill: #bf8e80;
      }

      .cls-8 {
        fill: #c4988b;
      }

      .cls-9 {
        fill: #1898aa;
      }

      .cls-10 {
        fill: #484a75;
      }

      .cls-11 {
        fill: #354060;
      }

      .cls-12, .cls-13, .cls-14 {
        fill: #59b7c3;
      }

      .cls-13 {
        opacity: .15;
      }

      .cls-14 {
        opacity: .19;
      }
    </style>
  </defs>
  <g>
    <path class="cls-13" d="M-256.53,210.1c-6.48-26.63-12.53-57.16,3.79-79.55,14.17-19.44,40.52-25.71,64.69-28.28,51.34-5.45,83.41-18.22,104.13-68.21,10.09-24.35,14.94-50.39,22.3-75.64C-43.33-104.44-8.6-163.41,41.24-207.02c48.61-42.53,111.93-69.72,176.77-71.59,1.64-.05,3.28-.08,4.92-.09,52.14-.47,103.95,16.03,146.29,45.4,21.04,14.59,36.8,34.43,57.43,49.18,22.55,16.13,46.48,30.68,72.37,41.14,67.74,27.39,144.42,25.43,216.98,38.16,72.56,12.73,149.56,48.28,171.09,115.5,24.46,76.37-32.07,153.88-49.92,232.52-14.97,65.95-1.27,136.99,37.18,192.8,19.59,28.43,45.16,52.88,63.26,82.22,24.72,40.44,22.83,89.82-8.82,126.56-15.42,17.89-35.23,29.6-57.15,38.19-29.23,11.46-52.57,4.59-83.13-.49-55.64-9.25-111.82-18.53-168.27-15.63-48.32,2.48-97.63,14.51-138.28,41.32-20.44,13.48-30.38,22.31-56.71,23.3-23.81,.9-47.85-4.5-68.68-15.71-47.95-25.81-74.83-83.75-113.28-120.84-42.44-40.94-104.83-44.38-159.86-27.63-50.98,15.52-93.46,51.6-144.2,67.88-72.3,23.19-157.37,.12-206.7-56.07-49.32-56.19-59.99-142.16-25.91-208.9,28.45-55.72,52.46-95.82,36.82-160.09Z"/>
    <ellipse class="cls-14" cx="117.81" cy="115.24" rx="173.65" ry="158.2"/>
    <ellipse class="cls-14" cx="693.7" cy="349.11" rx="173.65" ry="158.2"/>
  </g>
  <g>
    <path class="cls-7" d="M651.52,220.49c-20.29,3.25-20.58,11.31-25.5,16.28-10.34,9.74-47.49,27.59-78.65,21.99-31.17-5.6-95.6-77.9-95.6-77.9,0,0-29.15,29.49-7.85,50.36,29.69,29.09,84.79,60.71,97.02,63.12,26.75,5.27,80.39-23.92,97.92-38.95,17.52-15.03,32.96-38.17,12.66-34.92Z"/>
    <path class="cls-4" d="M471.38,187.92s-14.98,60.44-5.89,75.55c9.1,15.11,53.51,37.27,58.32,36.77,12.84-9.57,12.31-42.31,12.84-48.35-17.12-7.55-65.28-63.96-65.28-63.96Z"/>
    <path class="cls-11" d="M405.37,32.47c-41.05-11.92-64.3,3.75-77.55,15.22-9.96,8.62-19.73,28.96-6.47,42.65-6.44-5.29-38.84-14.39-59.92,8.27-8.65,9.29-2.68,22.45,7.03,27.15-8.72,2.05-17.56,4.14-25.43,8.23-7.87,4.09-14.81,10.47-17.37,18.58-2.56,8.11,.18,17.96,7.78,22.48-14.52,2.22-27.19,13.93-28.53,27.72-1.34,13.79,9.86,27.99,24.47,29.67,14.6,1.67,29.56-10.72,28.53-24.54,13.28,3.52,27.16,7.08,40.69,4.53,13.53-2.54,26.4-13.27,25.81-26.24,7.68,3.55,15.45,7.14,23.81,8.85,8.36,1.72,17.5,1.41,24.97-2.52,7.47-3.93,12.79-11.99,11.54-19.95,8.67,1.39,17.45,2.79,26.21,2.07,8.76-.71,17.64-3.78,23.44-10,5.8-6.22,7.73-15.96,3.1-23,11.19-3.27,24.68-26.68,15.85-54.97-5.71-18.29-14.59-44.53-47.94-54.22Z"/>
    <path class="cls-9" d="M372.46,409.53s-13.3,373.19-12.45,383.21c32.22,2.76,58.46-.45,67.36-2.76,33.68-93.73,26.36-385.96,26.36-385.96-17.57-26.19-81.28,5.51-81.28,5.51Z"/>
    <path class="cls-12" d="M302.9,398.5s-54.67,371.04-57.04,389.43c31.65,6.31,67.17,4.61,67.24,4.72,45.16-89.35,82.06-385.19,82.06-385.19-14.18-27.95-92.26-8.96-92.26-8.96Z"/>
    <path class="cls-6" d="M419.61,157.29c-4.14-4.04-6.64-9.3-7.26-14.88-1.85-16.64-5.01-50.68-1.43-61.9,4.8-15.07-36.82,3.01-36.82,3.01,0,0,2.2,34.63-5.67,61.52-3.35,11.46-21.58,14.62-26.36,19.13-16.01,15.07,70.26,26.06,86.46,20.31,26.67-9.46-1.16-19.63-8.92-27.19Z"/>
    <path class="cls-8" d="M384.15,60c-9.27,4.67-16.24,13.07-17.27,25.55-2.9,34.94,25.89,67.34,54.42,55.25,16.29-6.91,22.19-43.18,18.5-54.79-7.66-24.16-32.03-37.91-55.65-26Z"/>
    <path class="cls-12" d="M469.43,191.63c-12.08-20.1-37.34-28.95-37.34-28.95,0,0-31.85,33.08-74.69-5.17,0,0-29.65,6.2-39.54,20.68-9.88,14.47-23.06,220.21-18.67,241.92,3.29,2.07,115.32,28.95,155.96,10.34,13.18,2.58,11.95-155.25,11.95-180.07,0-11.79,13.26-40.56,2.33-58.75Z"/>
    <path class="cls-2" d="M312.76,176.29c-3.84,9.82-38.64,384.24-51.09,413.19,12.65,3.79,61.14,2.76,61.14,2.76,0,0,58.96-400.95,36.44-439.72,0,0-42.65,13.96-46.5,23.78Z"/>
    <path class="cls-11" d="M411.6,45.69s-57.11-13.44-60.24,72.2c-1.39,38.06,25.26,10.86,30.75-9.3,37.89,0,49.99-30.15,49.99-30.15,0,0,10.05,10.34,9.32,28.6,8.99-52.04-29.82-61.34-29.82-61.34Z"/>
    <path class="cls-2" d="M425.88,160.44l-4.03,428.35,55.82-3.79s1.74-386-4.56-393.2c-15.38-25.85-47.23-31.36-47.23-31.36Z"/>
    <g>
      <path class="cls-5" d="M475.46,303.98l-75.29-9.16c-5.19-.63-10.27,1.61-12.98,5.72l-67.04,101.65c-4.87,7.39-.04,17.01,9.25,18.41l80.36,12.17c5.54,.84,11.03-1.62,13.7-6.15l61.97-104.66c4.45-7.52-.72-16.85-9.97-17.98Z"/>
      <path class="cls-10" d="M477.47,305.21l-75.29-9.15c-5.19-.63-10.27,1.58-12.97,5.63l-66.87,100.4c-4.86,7.29-.01,16.81,9.27,18.21l80.36,12.14c5.54,.84,11.02-1.59,13.69-6.06l61.8-103.39c4.44-7.43-.75-16.66-9.99-17.79Z"/>
      <path class="cls-9" d="M461.7,290.33l-26.13-2.62c-1.18-.12-2.33,.42-2.93,1.38l-7.05,11.22c-1.11,1.77,.06,4.03,2.23,4.28l27.3,3.24c1.31,.16,2.57-.5,3.13-1.62l5.88-11.84c.88-1.77-.35-3.84-2.42-4.05Z"/>
      <path class="cls-9" d="M432.13,300.86c-29.47-3.99-24.53,4.83-24.53,4.83,0,0,56.85,6.75,57.59,6.8,5.95-8.59-12.66-8.86-33.06-11.63Z"/>
      <path class="cls-9" d="M456.39,279.48c-12.6-3.34-18.37,12.44-18.37,12.44l18.01,2.17s9.62-12.16,.36-14.61Zm-.25,5.97c-.21,1.54-1.85,2.61-3.68,2.39-1.82-.22-3.14-1.64-2.93-3.18,.21-1.54,1.85-2.61,3.68-2.39,1.82,.22,3.14,1.64,2.93,3.17Z"/>
    </g>
    <g>
      <path class="cls-5" d="M367.04,147.35l-2.66-.74c-22.18,29.31,7.95,87.81,9.31,90.26l6.26-2.49c-.33-.58-34.09-59.05-12.91-87.03Z"/>
      <path class="cls-11" d="M373.59,230.65c-7.3,2.83-11.25,9.62-8.82,15.17,2.43,5.55,10.31,7.76,17.61,4.93,7.3-2.83,11.25-9.62,8.82-15.17-2.43-5.55-10.31-7.76-17.61-4.93Z"/>
      <path class="cls-1" d="M373.14,230.19c-7.3,2.83-11.25,9.62-8.82,15.17,2.43,5.55,10.31,7.76,17.61,4.93,7.3-2.83,11.25-9.62,8.82-15.17-2.43-5.55-10.31-7.76-17.61-4.93Z"/>
      <path class="cls-11" d="M373.26,230.71c-5.29,2.05-8.15,6.97-6.39,10.99,1.76,4.02,7.47,5.62,12.76,3.57,5.29-2.05,8.15-6.97,6.39-10.99-1.76-4.02-7.47-5.62-12.76-3.57Z"/>
      <path class="cls-5" d="M372.56,229.4c-5.29,2.05-8.15,6.97-6.39,10.99,1.76,4.02,7.47,5.62,12.76,3.57,5.29-2.05,8.15-6.97,6.39-10.99-1.76-4.02-7.47-5.62-12.76-3.57Z"/>
    </g>
    <g>
      <path class="cls-5" d="M427.68,253.25c-2.73-1.42-4.27-3.15-5.9-.88-1.63,2.27-2.19,2.93-.86,4.64,1.33,1.71,4.83,1.79,5.93,.8,1.11-.99,1.49-2.86,1.41-3.06-.07-.2-.59-1.5-.59-1.5Z"/>
      <path class="cls-5" d="M441.44,196.71c-.34-.29-1.92,.09-1.92,.09,1.85,9.65-3.71,46.39-5.05,50.41-1.39,4.14-4.66,5.98-5.53,6.33-.87,.35-2.93,.04-3.36,.65-.43,.6,.62,1.98,1.38,2.07,.76,.09,4.62,.15,6.81-2.45,8.27-9.81,8.92-55.81,8.92-55.81,0,0-.91-1-1.25-1.29Z"/>
      <path class="cls-5" d="M449.18,249.11c-2.09-1.76-3.2,.33-5.52,2.45,0,0-.21,1.41-.24,1.62-.02,.21,.76,1.92,2.06,2.58,1.29,.66,4.67-.37,5.57-2.39,.91-2.02,.22-2.5-1.87-4.26Z"/>
      <path class="cls-5" d="M442.51,252.18c-.92-.1-4.5-.99-6.77-4.63-2.2-3.53-14.32-38.05-16.19-47.48,0,0-1.62,.06-1.88,.43-.26,.38-.44,.86-.44,.86,0,0,10.45,45.13,20.66,52.39,2.71,1.93,6.44,.82,7.15,.52,.72-.29,1.42-1.91,.87-2.38-.55-.47-2.47,.38-3.4,.29Z"/>
      <path class="cls-5" d="M429.64,177.35c-.72-4.93-1.49-16.16-8.87-21.06-3.5-.73,4.87,9.21,4.46,21.17-.04,.69-4.76-.66-8.74,5.33-3.05,4.59-1.98,14.87,.7,19.85,1.1,2.06,3.36,.15,3.08-1.34,0,0-5.58-16.56,2.65-18.59,3.6-1.37,16-4.67,16.05,21.47-.04,2.24,3.63,2.97,3.96,.21,.78-6.56-.34-24.09-13.3-27.04Z"/>
    </g>
    <path class="cls-7" d="M410.93,394.64s-55.49-21.85-82.71-53.08c-28.51-32.7,5.95-95.51,7.26-100.75,1.3-5.25-2.65-42.79-28.89-42.31,0,0-57.13,113.6-18.72,153.4,42.17,43.68,102.96,61.77,113.3,62.64,10.34,.87,34.64,9.99,44.41-6.46,13.59-22.88-34.65-13.44-34.65-13.44Z"/>
    <path class="cls-3" d="M314.02,173.88s-20.64,19.42-45.61,116.79c17.84,23.84,53.15,27.2,53.15,27.2,0,0,22.38-58.72,20.33-97.71-1.78-33.91-15.7-54.06-27.87-46.28Z"/>
  </g>
</svg>