<?xml version="1.0" encoding="UTF-8"?>
<svg id="Layer_1" data-name="Layer 1" xmlns="http://www.w3.org/2000/svg" viewBox="0 0 800 450">
  <defs>
    <style>
      .cls-1 {
        fill: #f4c7c3;
      }

      .cls-2 {
        fill: #f1b7b1;
      }

      .cls-3 {
        fill: #f49694;
      }

      .cls-4 {
        fill: #f0b3ae;
      }

      .cls-5 {
        fill: #f17679;
      }

      .cls-6 {
        fill: #323d5c;
      }

      .cls-7 {
        fill: #333664;
      }

      .cls-8 {
        fill: #d8a5a1;
      }

      .cls-9 {
        fill: #c6e1e6;
      }

      .cls-10 {
        fill: #d4e8eb;
      }

      .cls-11 {
        fill: #233770;
      }

      .cls-12 {
        fill: #484a75;
      }

      .cls-13, .cls-14, .cls-15 {
        fill: #59b7c3;
      }

      .cls-16 {
        fill: #75bfca;
      }

      .cls-14 {
        opacity: .15;
      }

      .cls-15 {
        opacity: .19;
      }
    </style>
  </defs>
  <g>
    <path class="cls-14" d="M-256.53,210.1c-6.48-26.63-12.53-57.16,3.79-79.55,14.17-19.44,40.52-25.71,64.69-28.28,51.34-5.45,83.41-18.22,104.13-68.21,10.09-24.35,14.94-50.39,22.3-75.64C-43.33-104.44-8.6-163.41,41.24-207.02c48.61-42.53,111.93-69.72,176.77-71.59,1.64-.05,3.28-.08,4.92-.09,52.14-.47,103.95,16.03,146.29,45.4,21.04,14.59,36.8,34.43,57.43,49.18,22.55,16.13,46.48,30.68,72.37,41.14,67.74,27.39,144.42,25.43,216.98,38.16,72.56,12.73,149.56,48.28,171.09,115.5,24.46,76.37-32.07,153.88-49.92,232.52-14.97,65.95-1.27,136.99,37.18,192.8,19.59,28.43,45.16,52.88,63.26,82.22,24.72,40.44,22.83,89.82-8.82,126.56-15.42,17.89-35.23,29.6-57.15,38.19-29.23,11.46-52.57,4.59-83.13-.49-55.64-9.25-111.82-18.53-168.27-15.63-48.32,2.48-97.63,14.51-138.28,41.32-20.44,13.48-30.38,22.31-56.71,23.3-23.81,.9-47.85-4.5-68.68-15.71-47.95-25.81-74.83-83.75-113.28-120.84-42.44-40.94-104.83-44.38-159.86-27.63-50.98,15.52-93.46,51.6-144.2,67.88-72.3,23.19-157.37,.12-206.7-56.07-49.32-56.19-59.99-142.16-25.91-208.9,28.45-55.72,52.46-95.82,36.82-160.09Z"/>
    <ellipse class="cls-15" cx="117.81" cy="115.24" rx="173.65" ry="158.2"/>
    <ellipse class="cls-15" cx="693.7" cy="349.11" rx="173.65" ry="158.2"/>
  </g>
  <g>
    <path class="cls-1" d="M406.03,224.49c-1.35,4.17-13.17,65.7-30.16,90.78-18.43,27.2-52.44,55.48-52.44,55.48,0,0-35.46-3.88-23.88,14.01,8.33,12.87,26.83,5.86,34.27,3.06,8.65-3.26,36.53-15.24,69.52-50.89,29.7-32.1,45.09-116.92,45.09-116.92-20.08,.9-39.42-4.78-42.4,4.48Z"/>
    <g>
      <g>
        <path class="cls-2" d="M401.36,157.74c12.53,25.07,34.07,67.35,39.29,72.43,16.47,16.01,77.6-11.47,88.05-16.14,2.96-4.5,7.97-13.62,15.61-16.54,8.05-3.08-3.07,12.31-3.07,12.31,0,0,11.39-9.66,18.91-16.73,6.04-5.67,13.01,13.46,5.21,26.06-6.09,9.85-21.15,14.53-30.55,17.03-13.21,9.43-54.96,40.16-99.96,33.94-34.32-4.74-68.07-72.98-68.07-72.98l17.1-38.94c3.29-7.49,13.81-7.78,17.47-.46Z"/>
        <path class="cls-13" d="M436.83,211.13c3.69,.62-16.62,45.54-35.69,50.46-2.46-1.23-17.23-16.62-17.23-16.62,0,0-6.37-64.61,5.94-104,0,0,17.45,6.77,46.99,70.15Z"/>
        <path class="cls-6" d="M378.75,357.31s4.05,237-13.79,403.51c1.4,1.24-28.18,5.99-44.68,5.27,2.64-.16-19.23-299.26-19.23-299.26,0,0-49.16,268.75-65.37,301.63-11.26,0-24.92-2.61-40.53-4.5-2.53,16.53,13.52-271.05,30.05-434.47-5.35-1,153.54,27.82,153.54,27.82Z"/>
        <path class="cls-8" d="M310.58,56.87s35.2,18.22,36.94,12.57c5.03,46.04,18.41,57.56,25.25,62.75-8.02,16.08-98.38,12.46-93.83-.36,13.02-10.22,31.65-74.96,31.65-74.96Z"/>
        <path class="cls-2" d="M366.08,32.89s11.82,54.8-17.72,76.5c-21.75,15.97-54.14-28.21-46.43-60.7,7.71-32.49,52.9-38.05,64.15-15.8Z"/>
        <path class="cls-16" d="M229.6,132.2s1.17-.69,3.22-1.8c9.31-5.05,36.74-18.76,54.01-15.28,12.41,12.96,50.79,30.08,76.61,7.38,0,0,23.17,9.46,37.94,28.61,3.46,5.08-20.17,99.48-16.24,144.92,2.45,28.4,5.89,53.48,3.79,72.97-1.78,16.5-14.74,29.59-31.1,32.38-35.3,6.02-107.39,14.13-137.92-15.81-11.7-8.42-16.62-32.31-10.43-61.84,6.09-29.11,20.12-191.54,20.12-191.54Z"/>
        <path class="cls-7" d="M324.66,10.3c21.05-1.05,40.16,3.14,44.43,6.96,8.24,7.38-2.27,21.3-2.27,21.3,0,0-14.59-10.07-35.22-3.98-5.81,.55-5.96,10.51-5.96,10.51,0,0-14.19,.35-9.94,19.31,2.83,7.79-4.26,2.56-4.26,2.56,0,0-.13-12.5-3.69-10.79-5.18,2.48-5.4,5.89-2.56,23.29-1.35,5.18-16.2-17.21-13.92-42.03,1.72-13.64,12.34-26.07,33.39-27.13Z"/>
        <path class="cls-13" d="M363.45,122.51c5.77,3,10.47,5.66,10.47,5.66,0,0-49.61,37.03-99.92-12.81,0,0,4.15-2.08,14.54-2.77,0,0,42.6,33.46,74.91,9.92Z"/>
        <path class="cls-2" d="M237.65,158.47c16.72,6.34,30.78,20.95,30.96,24.78,.26,5.57,5.4,85.74,28.78,104.33,32.72,26,83.94,30.58,83.94,30.58,0,0,45.27-22.78,38.97,3.6-4.53,18.97-28.44,19.71-38.37,21.58-9.94,1.88-65.1,3.53-116.92-28.78-35.93-22.4-46.57-102.13-49.6-138.94-1-12.1,10.89-21.45,22.24-17.15Z"/>
        <path class="cls-13" d="M271.34,154.53c10.41,30.07,16.48,73.17,14.06,75.49-20.39,13.79-68.97,14.56-70.15,5.4-5.4-24.58-6.92-74.98,4.8-94.13,13.71-22.43,42.69-11.59,51.29,13.25Z"/>
      </g>
      <path class="cls-11" d="M311.35,64.85c.96,.16,1.34-.43,2.32-.43,.76,0,1.96,2.91,2.69,2.83,0,.17-.13,4.84-.13,5.02,.44,12.45,4.51,24.98,10.38,25.48,5.88,.5,9.88-16.13,24.07-15.77,11.54,.29,6.36,16.22,8.26,14.84,4.3-3.14,6.58-25.68,6.92-27.53,.34-1.85,2.82-10.21,2.53-6.82-2.53,21-5.45,48.01-20.87,50.49-18.73,3.01-42.55-12.63-36.57-40.8,.03-.16,.35-7.13,.39-7.3Z"/>
    </g>
    <path class="cls-1" d="M551.47,267.17s6.77,66.49,11.15,68.08c4.38,1.59,26.68,13.94,40.21-8.76,9.16-22.69-12.34-74.45-12.34-74.45l-39.02,15.13Z"/>
    <path class="cls-5" d="M524.4,177.59s16.12,106.31,31.65,106.9c15.53,.6,44.79-19.11,43-23.89-30.46-81.22-74.65-83.01-74.65-83.01Z"/>
    <path class="cls-12" d="M486.81,62.86c-56.53-10.45-68.12,35.09-66.69,84.92,.59,20.51-40.97,73.62-23.86,87.68,17.11,14.06,53.2-33.16,74.18-37.15,1.74-.33,17.56-6.7,33.65-15.16,6.71-3.53,16.59-9.22,17.7-17.75,12.12-93.36-34.98-102.54-34.98-102.54Z"/>
    <path class="cls-5" d="M427.29,180.33s-14.88,12.54-30.56,71c-2.98,7.98,8.39,29.39,26.72,37.12,18.33,7.74,14.98-107.56,3.84-108.12Z"/>
    <path class="cls-2" d="M424.63,454.54c-4.37,59.28,43.69,351.57,37.37,354.98-5.81,3.14,12.55,19.86,21.89,9.19-4.72-121.43,10.22-326.86,10.22-326.86,0,0-66.93-71.91-69.48-37.31Z"/>
    <path class="cls-6" d="M420.28,379.58s-3.62,243.21,21.97,341.81c8.46,3.2,29.3,4.88,56.15,2.44-2.18-11.75-10.38-339.37-10.38-339.37,0,0-53.1-28.08-67.75-4.88Z"/>
    <path class="cls-12" d="M466.51,380.46s22.42,249.28,48.47,344.53c6.96,1.69,29.54,3.12,56.2-.92-5.81-31.44-27.43-347.06-27.43-347.06,0,0-64-20.58-77.24,3.45Z"/>
    <path class="cls-4" d="M494.51,157.14c-4.49-24.2-.53-54.67-.53-54.67,0,0-31.7-18.36-28.88-4.78,2.1,10.12-2.58,40-5.1,54.59-.85,4.9-3.16,9.4-6.69,12.73-6.61,6.23-29.24,13.62-8.79,23.51,12.43,6.01,81.25,1.25,69.58-12.98-3.49-4.25-17.67-8.09-19.59-18.41Z"/>
    <path class="cls-3" d="M541.2,184.62c2.08-11.06-36.12-21.7-36.12-21.7,0,0-25.77,29.24-58.34,4.67,0,0-19.68,6.79-24.9,16.17-2.48,4.47-8.66,23.27-12.94,42.52-6.57,29.51-.16,46.34,9.27,60.74,2.63,42.66-20.33,124.04-4.18,132.05,16.14,8.02,112.85,14.59,138.85-11.92,4.72-5.04-8.21-26.6-13.77-83.82-5.56-57.22,.05-127.64,2.13-138.7Z"/>
    <path class="cls-5" d="M503.19,161.58s-21.65,28.66-55.85,5.51c-2.28,.38-5.76,1.26-9.19,3.66-2.25,1.58,39.24,37.02,75.4-5.39-.5-1.36-10.35-3.78-10.35-3.78Z"/>
    <path class="cls-1" d="M484.39,77.85c-20.04-11.2-40.51,1.73-45.98,24.71-4.22,17.74,2.96,45.27,16.75,51.76,24.15,11.37,47.51-19.33,44.28-52.35-1.15-11.79-7.18-19.72-15.05-24.12Z"/>
    <path class="cls-12" d="M488.52,70.85c-52.97-27.02-69.37,33.46-55.94,66.08-2-3.96,14.6-22.06,16.9-42.98,0,0,14.77,31.52,40.01,34.31,13.45,21.41,19.46,1.24,19.46,1.24,0,0,32.55-31.64-20.43-58.65Z"/>
    <path class="cls-1" d="M446.21,393.62s17.57,26.91,20,30.99c2.44,4.08,10.73,.12,13.1-5.57,2.37-5.69-18.49-31.46-18.49-31.46l-14.62,6.03Z"/>
    <path class="cls-12" d="M563.03,286.69s-100.99-4.77-132.5,37.18c-21.59,28.75,19.06,87.01,19.06,87.01l22.62-13.39s-13.38-30.81-11.05-44.89c31.38,7.26,56.92,5.12,76.03,.19,23.48-6.07,36.99-30.67,29.71-53.8l-3.87-12.3Z"/>
    <path class="cls-13" d="M476.64,409.55l-15.17,7.65s-9.49,13.69-6.49,17.91c2.24,3.15,17.33-6.02,24.82-10.86,2.36-1.52,2.91-4.86,1.24-7.57l-4.4-7.14Z"/>
    <path class="cls-1" d="M461.49,351.18c-6.51,7.31,13.92,29.08,44.39,24.69-1.2-8.47-5.49-9.62-6.83-18.08-11.18-4.37-32.32-12.5-37.57-6.61Z"/>
    <path class="cls-1" d="M570.98,316.74c-24.28,37.72-75.68,40.8-75.68,40.8,0,0-3.29,13,2.22,18.33,73.46-2.39,106.63-47.37,105.71-54.55-.92-7.18-31.84-7.2-32.25-4.58Z"/>
    <path class="cls-9" d="M571.69,273.83c-.54-7.69-1.77-15.03-3.45-21.9-.39-1.58-.79-3.14-1.22-4.66-3.22-11.52-7.53-21.5-11.48-29.24-.79-1.55-1.56-2.99-2.31-4.36-4.53-8.25-8.1-13.03-8.1-13.03-10.67-11.83-20.67-13.32-28.14-8.72-1.33,.82-2.57,1.85-3.73,3.04-2.9,2.97-5.25,6.97-6.83,11.7-7.6,10.69-12.25,26.5-12.1,31.6,2.08,2.64,7.04,4.64,12.94,5.95,.84,11.08-2.44,20.47-6.48,27.63-.64,1.13-1.29,2.22-1.95,3.23-5.04,7.72-10.42,12.09-10.42,12.09,0,0,52.37,44.17,79.28,25.69,1.44-4.97,2.45-9.88,3.15-14.73,.26-1.82,.48-3.62,.64-5.42,.47-5.02,.59-9.95,.41-14.77-.05-1.38-.12-2.76-.21-4.12Z"/>
    <path class="cls-1" d="M508.46,234.75c2,24.37-28.69,43.35-34.92,47.35-4.4,.29-10.28,4.93-10.28,4.93,0,0-6.4,9.25-3.86,15,2.43,5.5,8.57,.86,22.92-9.34,54.62-15.37,55.11-68.3,55.11-68.3-10.29-4.94-27.56,10.27-28.97,10.37Z"/>
    <path class="cls-10" d="M524.67,213.89c-2.65-.14-5.34,.45-7.81,2.26-8.28,6.1-15.72,19.43-18.42,26.82-.51,1.4-.87,2.61-1.01,3.49,.29,.67,.72,1.34,1.26,2.01,3.46,4.29,11.64,8.36,19.25,10.73,.9,.28,1.79,.53,2.66,.77,6.88,1.81,12.71,2.01,13.25-.61,2.31-3.51,3.95-7.5,5.11-11.55,.41-1.43,.76-2.86,1.06-4.29,.36-1.72,.63-3.41,.84-5.06,.05-.42,.12-.85,.16-1.27,.12-1.11,.14-2.22,.11-3.32-.3-10.31-7.13-19.48-16.46-19.97Z"/>
    <path class="cls-2" d="M498.75,152.84s-7.16,10.18-5.33,19.19c1.38,4.93-12.97,22.25,7.04,36.76,17.53,10.23,41.69-10.3,43.66-27.54,1.97-17.23-16.86-42.89-45.38-28.41Z"/>
    <path class="cls-6" d="M524.02,138.4c-41.14-3.43-34.28,31.71-34.28,31.71,12.28,9.71,29.71,7.14,29.71,7.14,0,0,2.57-7.71,2.57-11.14,0,6.86,.29,11.43,.29,11.43,0,0,4.17-2.69,6-1.43,4.14,2.86,1.21,9.41,1.43,10.57,1.48,7.92,5.43,12.13,6.29,12.57,29.42-14.85,23.42-42.85,16.57-52.56-6.86-9.71-19.71-10.28-28.57-8.28Z"/>
    <path class="cls-6" d="M571.46,198.55c2.4-.74,16.68-17.09,10.75-25.08-9.82-10.63-31.21-1.48-31.21-1.48,0,0-1.71,4.37,1.31,6.42"/>
  </g>
</svg>